<?xml version='1.0' encoding='UTF-8' standalone='no'?>
<svg baseProfile="tiny" height="4.8213mm" version="1.2" viewBox="0 0 41 41" width="4.8213mm" xmlns="http://www.w3.org/2000/svg" xmlns:xlink="http://www.w3.org/1999/xlink">
    <style id="current-color-scheme" type="text/css">.ColorScheme-Text {color:#232629;}</style>
    <title>Qt SVG Document</title>
    <desc>Auto-generated by Klassy window decoration</desc>
    <defs/>
    <g fill="none" fill-rule="evenodd" stroke="black" stroke-linecap="square" stroke-linejoin="bevel" stroke-width="1">
        <g class="ColorScheme-Text" fill="currentColor" fill-opacity="1" font-family="Noto Sans" font-size="30" font-style="normal" font-weight="400" stroke="none" transform="matrix(2.27778,0,0,2.27778,0,0)">
            <path d="M3.50453,8.50453 L8.50453,3.50453 L9,3.00906 L9.49547,3.50453 L14.4955,8.50453 C14.7691,8.77817 14.7691,9.22183 14.4955,9.49547 C14.2218,9.76911 13.7782,9.76911 13.5045,9.49547 L8.50453,4.49547 L9,4 L9.49547,4.49547 L4.49547,9.49547 C4.22183,9.76911 3.77817,9.76911 3.50453,9.49547 C3.23089,9.22183 3.23089,8.77817 3.50453,8.50453 " fill-rule="nonzero" vector-effect="none"/>
            <path d="M3.50453,12.5045 L8.50453,7.50453 L9,7.00906 L9.49547,7.50453 L14.4955,12.5045 C14.7691,12.7782 14.7691,13.2218 14.4955,13.4955 C14.2218,13.7691 13.7782,13.7691 13.5045,13.4955 L8.50453,8.49547 L9,8 L9.49547,8.49547 L4.49547,13.4955 C4.22183,13.7691 3.77817,13.7691 3.50453,13.4955 C3.23089,13.2218 3.23089,12.7782 3.50453,12.5045 " fill-rule="nonzero" vector-effect="none"/>
        </g>
    </g>
</svg>
