<?xml version='1.0' encoding='UTF-8' standalone='no'?>
<svg baseProfile="tiny" height="4.23333mm" version="1.2" viewBox="0 0 16 16" width="4.23333mm" xmlns="http://www.w3.org/2000/svg" xmlns:xlink="http://www.w3.org/1999/xlink">
    <style id="current-color-scheme" type="text/css">.ColorScheme-Text {color:#232629;}</style>
    <title>Qt SVG Document</title>
    <desc>Auto-generated by Klassy window decoration</desc>
    <defs/>
    <g fill="none" fill-rule="evenodd" stroke="black" stroke-linecap="square" stroke-linejoin="bevel" stroke-width="1">
        <g class="ColorScheme-Text" fill="#a7c080" fill-opacity="0.719997" font-family="Noto Sans" font-size="13.3333" font-style="normal" font-weight="400" stroke="none" transform="matrix(1,0,0,1,0,0)">
            <path d="M2,3.2 C2,2.53726 2.53726,2 3.2,2 L12.8,2 C13.4627,2 14,2.53726 14,3.2 L14,12.8 C14,13.4627 13.4627,14 12.8,14 L3.2,14 C2.53726,14 2,13.4627 2,12.8 L2,3.2" fill-rule="evenodd" vector-effect="none"/>
        </g>
        <g class="ColorScheme-Text" fill="currentColor" fill-opacity="1" font-family="Noto Sans" font-size="13.3333" font-style="normal" font-weight="400" stroke="none" transform="matrix(0.888889,0,0,0.888889,0,0)">
            <path d="M5.39815,4.60185 L13.3981,12.6019 C13.618,12.8217 13.618,13.1783 13.3981,13.3981 C13.1783,13.618 12.8217,13.618 12.6019,13.3981 L4.60185,5.39815 C4.38197,5.17826 4.38197,4.82174 4.60185,4.60185 C4.82174,4.38197 5.17826,4.38197 5.39815,4.60185 " fill-rule="nonzero" vector-effect="none"/>
            <path d="M13.3981,5.39815 L5.39815,13.3981 C5.17826,13.618 4.82174,13.618 4.60185,13.3981 C4.38197,13.1783 4.38197,12.8217 4.60185,12.6019 L12.6019,4.60185 C12.8217,4.38197 13.1783,4.38197 13.3981,4.60185 C13.618,4.82174 13.618,5.17826 13.3981,5.39815 " fill-rule="nonzero" vector-effect="none"/>
        </g>
    </g>
</svg>
