<?xml version='1.0' encoding='UTF-8' standalone='no'?>
<svg baseProfile="tiny" height="4.23333mm" version="1.2" viewBox="0 0 16 16" width="4.23333mm" xmlns="http://www.w3.org/2000/svg" xmlns:xlink="http://www.w3.org/1999/xlink">
    <style id="current-color-scheme" type="text/css">.ColorScheme-Text {color:#232629;}</style>
    <title>Qt SVG Document</title>
    <desc>Auto-generated by Klassy window decoration</desc>
    <defs/>
    <g fill="none" fill-rule="evenodd" stroke="black" stroke-linecap="square" stroke-linejoin="bevel" stroke-width="1">
        <g class="ColorScheme-Text" fill="currentColor" fill-opacity="1" font-family="Noto Sans" font-size="13.3333" font-style="normal" font-weight="400" stroke="none" transform="matrix(0.888889,0,0,0.888889,0,0)">
            <path d="M3.60185,8.60185 L8.60185,3.60185 L9,3.20371 L9.39815,3.60185 L14.3981,8.60185 C14.618,8.82174 14.618,9.17826 14.3981,9.39815 C14.1783,9.61803 13.8217,9.61803 13.6019,9.39815 L8.60185,4.39815 L9,4 L9.39815,4.39815 L4.39815,9.39815 C4.17826,9.61803 3.82174,9.61803 3.60185,9.39815 C3.38197,9.17826 3.38197,8.82174 3.60185,8.60185 " fill-rule="nonzero" vector-effect="none"/>
            <path d="M3.60185,12.6019 L8.60185,7.60185 L9,7.20371 L9.39815,7.60185 L14.3981,12.6019 C14.618,12.8217 14.618,13.1783 14.3981,13.3981 C14.1783,13.618 13.8217,13.618 13.6019,13.3981 L8.60185,8.39815 L9,8 L9.39815,8.39815 L4.39815,13.3981 C4.17826,13.618 3.82174,13.618 3.60185,13.3981 C3.38197,13.1783 3.38197,12.8217 3.60185,12.6019 " fill-rule="nonzero" vector-effect="none"/>
        </g>
    </g>
</svg>
