<?xml version='1.0' encoding='UTF-8' standalone='no'?>
<svg baseProfile="tiny" height="4.23333mm" version="1.2" viewBox="0 0 16 16" width="4.23333mm" xmlns="http://www.w3.org/2000/svg" xmlns:xlink="http://www.w3.org/1999/xlink">
    <style id="current-color-scheme" type="text/css">.ColorScheme-Text {color:#232629;}</style>
    <title>Qt SVG Document</title>
    <desc>Auto-generated by Klassy window decoration</desc>
    <defs/>
    <g fill="none" fill-rule="evenodd" stroke="black" stroke-linecap="square" stroke-linejoin="bevel" stroke-width="1">
        <g class="ColorScheme-Text" fill="currentColor" fill-opacity="1" font-family="Noto Sans" font-size="13.3333" font-style="normal" font-weight="400" stroke="none" transform="matrix(0.888889,0,0,0.888889,0,0)">
            <path d="M4.39815,4.60185 L9.39815,9.60185 L9,10 L8.60185,9.60185 L13.6019,4.60185 C13.8217,4.38197 14.1783,4.38197 14.3981,4.60185 C14.618,4.82174 14.618,5.17826 14.3981,5.39815 L9.39815,10.3981 L9,10.7963 L8.60185,10.3981 L3.60185,5.39815 C3.38197,5.17826 3.38197,4.82174 3.60185,4.60185 C3.82174,4.38197 4.17826,4.38197 4.39815,4.60185 " fill-rule="nonzero" vector-effect="none"/>
            <path d="M4.39815,8.60185 L9.39815,13.6019 L9,14 L8.60185,13.6019 L13.6019,8.60185 C13.8217,8.38197 14.1783,8.38197 14.3981,8.60185 C14.618,8.82174 14.618,9.17826 14.3981,9.39815 L9.39815,14.3981 L9,14.7963 L8.60185,14.3981 L3.60185,9.39815 C3.38197,9.17826 3.38197,8.82174 3.60185,8.60185 C3.82174,8.38197 4.17826,8.38197 4.39815,8.60185 " fill-rule="nonzero" vector-effect="none"/>
        </g>
    </g>
</svg>
