<?xml version='1.0' encoding='UTF-8' standalone='no'?>
<svg baseProfile="tiny" height="4.23333mm" version="1.2" viewBox="0 0 16 16" width="4.23333mm" xmlns="http://www.w3.org/2000/svg" xmlns:xlink="http://www.w3.org/1999/xlink">
    <style id="current-color-scheme" type="text/css">.ColorScheme-Text {color:#232629;}</style>
    <title>Qt SVG Document</title>
    <desc>Auto-generated by Klassy window decoration</desc>
    <defs/>
    <g fill="none" fill-rule="evenodd" stroke="black" stroke-linecap="square" stroke-linejoin="bevel" stroke-width="1">
        <g class="ColorScheme-Text" fill="currentColor" fill-opacity="1" font-family="Noto Sans" font-size="13.3333" font-style="normal" font-weight="400" stroke="none" transform="matrix(0.888889,0,0,0.888889,0,0)">
            <path d="M3.60185,8.60185 L8.60185,3.60185 C8.70375,3.49996 8.84451,3.43694 9,3.43694 C9.31097,3.43694 9.56306,3.68903 9.56306,4 C9.56306,4.31097 9.31097,4.56306 9,4.56306 C8.84451,4.56306 8.70375,4.50004 8.60185,4.39815 L9.39815,3.60185 L14.3981,8.60185 C14.5,8.70375 14.5631,8.84451 14.5631,9 C14.5631,9.15549 14.5,9.29625 14.3981,9.39815 L9.39815,14.3981 C9.29625,14.5 9.15549,14.5631 9,14.5631 C8.84451,14.5631 8.70375,14.5 8.60185,14.3981 L3.60185,9.39815 C3.49996,9.29625 3.43694,9.15549 3.43694,9 C3.43694,8.84451 3.49996,8.70375 3.60185,8.60185 L3.60185,8.60185 M4.39815,8.60185 L9.39815,13.6019 L9,14 L8.60185,13.6019 L13.6019,8.60185 L14,9 L13.6019,9.39815 L8.60185,4.39815 L9,4 L9.39815,4.39815 L4.39815,9.39815 L4,9 L4.39815,8.60185" fill-rule="nonzero" vector-effect="none"/>
        </g>
    </g>
</svg>
