<?xml version='1.0' encoding='UTF-8' standalone='no'?>
<svg baseProfile="tiny" height="12.7mm" version="1.2" viewBox="0 0 48 48" width="12.7mm" xmlns="http://www.w3.org/2000/svg" xmlns:xlink="http://www.w3.org/1999/xlink">
    <style id="current-color-scheme" type="text/css">.ColorScheme-Text {color:#232629;}</style>
    <title>Qt SVG Document</title>
    <desc>Auto-generated by Klassy window decoration</desc>
    <defs/>
    <g fill="none" fill-rule="evenodd" stroke="black" stroke-linecap="square" stroke-linejoin="bevel" stroke-width="1">
        <g class="ColorScheme-Text" fill="currentColor" fill-opacity="1" font-family="Noto Sans" font-size="13.3333" font-style="normal" font-weight="400" stroke="none" transform="matrix(2.66667,0,0,2.66667,0,0)">
            <path d="M4.35391,4.64609 L9.35391,9.64609 L9,10 L8.64609,9.64609 L13.6461,4.64609 C13.8416,4.45064 14.1584,4.45064 14.3539,4.64609 C14.5494,4.84155 14.5494,5.15845 14.3539,5.35391 L9.35391,10.3539 L9,10.7078 L8.64609,10.3539 L3.64609,5.35391 C3.45064,5.15845 3.45064,4.84155 3.64609,4.64609 C3.84155,4.45064 4.15845,4.45064 4.35391,4.64609 " fill-rule="nonzero" vector-effect="none"/>
            <path d="M4.35391,8.64609 L9.35391,13.6461 L9,14 L8.64609,13.6461 L13.6461,8.64609 C13.8416,8.45064 14.1584,8.45064 14.3539,8.64609 C14.5494,8.84155 14.5494,9.15845 14.3539,9.35391 L9.35391,14.3539 L9,14.7078 L8.64609,14.3539 L3.64609,9.35391 C3.45064,9.15845 3.45064,8.84155 3.64609,8.64609 C3.84155,8.45064 4.15845,8.45064 4.35391,8.64609 " fill-rule="nonzero" vector-effect="none"/>
        </g>
    </g>
</svg>
