<?xml version='1.0' encoding='UTF-8' standalone='no'?>
<svg baseProfile="tiny" height="12.7mm" version="1.2" viewBox="0 0 48 48" width="12.7mm" xmlns="http://www.w3.org/2000/svg" xmlns:xlink="http://www.w3.org/1999/xlink">
    <style id="current-color-scheme" type="text/css">.ColorScheme-Text {color:#232629;}</style>
    <title>Qt SVG Document</title>
    <desc>Auto-generated by Klassy window decoration</desc>
    <defs/>
    <g fill="none" fill-rule="evenodd" stroke="black" stroke-linecap="square" stroke-linejoin="bevel" stroke-width="1">
        <g class="ColorScheme-Text" fill="currentColor" fill-opacity="1" font-family="Noto Sans" font-size="13.3333" font-style="normal" font-weight="400" stroke="none" transform="matrix(2.66667,0,0,2.66667,0,0)">
            <path d="M3.64609,8.64609 L8.64609,3.64609 L9,3.29219 L9.35391,3.64609 L14.3539,8.64609 C14.5494,8.84155 14.5494,9.15845 14.3539,9.35391 C14.1584,9.54936 13.8416,9.54936 13.6461,9.35391 L8.64609,4.35391 L9,4 L9.35391,4.35391 L4.35391,9.35391 C4.15845,9.54936 3.84155,9.54936 3.64609,9.35391 C3.45064,9.15845 3.45064,8.84155 3.64609,8.64609 " fill-rule="nonzero" vector-effect="none"/>
            <path d="M3.64609,12.6461 L8.64609,7.64609 L9,7.29219 L9.35391,7.64609 L14.3539,12.6461 C14.5494,12.8416 14.5494,13.1584 14.3539,13.3539 C14.1584,13.5494 13.8416,13.5494 13.6461,13.3539 L8.64609,8.35391 L9,8 L9.35391,8.35391 L4.35391,13.3539 C4.15845,13.5494 3.84155,13.5494 3.64609,13.3539 C3.45064,13.1584 3.45064,12.8416 3.64609,12.6461 " fill-rule="nonzero" vector-effect="none"/>
        </g>
    </g>
</svg>
