<?xml version='1.0' encoding='UTF-8' standalone='no'?>
<svg baseProfile="tiny" height="6.35mm" version="1.2" viewBox="0 0 72 72" width="6.35mm" xmlns="http://www.w3.org/2000/svg" xmlns:xlink="http://www.w3.org/1999/xlink">
    <style id="current-color-scheme" type="text/css">.ColorScheme-Text {color:#fcfcfc;}</style>
    <title>Qt SVG Document</title>
    <desc>Auto-generated by Klassy window decoration</desc>
    <defs/>
    <g fill="none" fill-rule="evenodd" stroke="black" stroke-linecap="square" stroke-linejoin="bevel" stroke-width="1">
        <g class="ColorScheme-Text" fill="currentColor" fill-opacity="1" font-family="Noto Sans" font-size="40" font-style="normal" font-weight="400" stroke="none" transform="matrix(4,0,0,4,0,0)">
            <path d="M4.49547,4.50453 L9.49547,9.50453 L9,10 L8.50453,9.50453 L13.5045,4.50453 C13.7782,4.23089 14.2218,4.23089 14.4955,4.50453 C14.7691,4.77817 14.7691,5.22183 14.4955,5.49547 L9.49547,10.4955 L9,10.9909 L8.50453,10.4955 L3.50453,5.49547 C3.23089,5.22183 3.23089,4.77817 3.50453,4.50453 C3.77817,4.23089 4.22183,4.23089 4.49547,4.50453 " fill-rule="nonzero" vector-effect="none"/>
            <path d="M4.49547,8.50453 L9.49547,13.5045 L9,14 L8.50453,13.5045 L13.5045,8.50453 C13.7782,8.23089 14.2218,8.23089 14.4955,8.50453 C14.7691,8.77817 14.7691,9.22183 14.4955,9.49547 L9.49547,14.4955 L9,14.9909 L8.50453,14.4955 L3.50453,9.49547 C3.23089,9.22183 3.23089,8.77817 3.50453,8.50453 C3.77817,8.23089 4.22183,8.23089 4.49547,8.50453 " fill-rule="nonzero" vector-effect="none"/>
        </g>
    </g>
</svg>
