<?xml version='1.0' encoding='UTF-8' standalone='no'?>
<svg baseProfile="tiny" height="4.23333mm" version="1.2" viewBox="0 0 44 44" width="4.23333mm" xmlns="http://www.w3.org/2000/svg" xmlns:xlink="http://www.w3.org/1999/xlink">
    <style id="current-color-scheme" type="text/css">.ColorScheme-Text {color:#fcfcfc;}</style>
    <title>Qt SVG Document</title>
    <desc>Auto-generated by Klassy window decoration</desc>
    <defs/>
    <g fill="none" fill-rule="evenodd" stroke="black" stroke-linecap="square" stroke-linejoin="bevel" stroke-width="1">
        <g class="ColorScheme-Text" fill="currentColor" fill-opacity="1" font-family="Noto Sans" font-size="36.6667" font-style="normal" font-weight="400" stroke="none" transform="matrix(2.44444,0,0,2.44444,0,0)">
            <path d="M5.61934,4.38066 L13.6193,12.3807 C13.9614,12.7227 13.9614,13.2773 13.6193,13.6193 C13.2773,13.9614 12.7227,13.9614 12.3807,13.6193 L4.38066,5.61934 C4.03861,5.27729 4.03861,4.72271 4.38066,4.38066 C4.72271,4.03861 5.27729,4.03861 5.61934,4.38066 " fill-rule="nonzero" vector-effect="none"/>
            <path d="M13.6193,5.61934 L5.61934,13.6193 C5.27729,13.9614 4.72271,13.9614 4.38066,13.6193 C4.03861,13.2773 4.03861,12.7227 4.38066,12.3807 L12.3807,4.38066 C12.7227,4.03861 13.2773,4.03861 13.6193,4.38066 C13.9614,4.72271 13.9614,5.27729 13.6193,5.61934 " fill-rule="nonzero" vector-effect="none"/>
        </g>
    </g>
</svg>
