<?xml version='1.0' encoding='UTF-8' standalone='no'?>
<svg baseProfile="tiny" height="4.23333mm" version="1.2" viewBox="0 0 44 44" width="4.23333mm" xmlns="http://www.w3.org/2000/svg" xmlns:xlink="http://www.w3.org/1999/xlink">
    <style id="current-color-scheme" type="text/css">.ColorScheme-Text {color:#fcfcfc;}</style>
    <title>Qt SVG Document</title>
    <desc>Auto-generated by Klassy window decoration</desc>
    <defs/>
    <g fill="none" fill-rule="evenodd" stroke="black" stroke-linecap="square" stroke-linejoin="bevel" stroke-width="1">
        <g class="ColorScheme-Text" fill="currentColor" fill-opacity="1" font-family="Noto Sans" font-size="36.6667" font-style="normal" font-weight="400" stroke="none" transform="matrix(2.44444,0,0,2.44444,0,0)">
            <path d="M3.38066,8.38066 L8.38066,3.38066 C8.53917,3.22216 8.75813,3.12413 9,3.12413 C9.48373,3.12413 9.87587,3.51627 9.87587,4 C9.87587,4.48373 9.48373,4.87588 9,4.87588 C8.75813,4.87588 8.53917,4.77784 8.38066,4.61934 L9.61934,3.38066 L14.6193,8.38066 C14.7778,8.53917 14.8759,8.75813 14.8759,9 C14.8759,9.24187 14.7778,9.46083 14.6193,9.61934 L9.61934,14.6193 C9.46083,14.7778 9.24187,14.8759 9,14.8759 C8.75813,14.8759 8.53917,14.7778 8.38066,14.6193 L8.38066,14.6193 L3.38066,9.61934 C3.22216,9.46083 3.12413,9.24187 3.12413,9 C3.12413,8.75813 3.22216,8.53917 3.38066,8.38066 L3.38066,8.38066 M4.61934,8.38066 L9.61934,13.3807 L9,14 L8.38066,13.3807 L13.3807,8.38066 L14,9 L13.3807,9.61934 L8.38066,4.61934 L9,4 L9.61934,4.61934 L4.61934,9.61934 L4,9 L4.61934,8.38066" fill-rule="nonzero" vector-effect="none"/>
        </g>
    </g>
</svg>
