<?xml version='1.0' encoding='UTF-8' standalone='no'?>
<svg baseProfile="tiny" height="8.46667mm" version="1.2" viewBox="0 0 32 32" width="8.46667mm" xmlns="http://www.w3.org/2000/svg" xmlns:xlink="http://www.w3.org/1999/xlink">
    <style id="current-color-scheme" type="text/css">.ColorScheme-Text {color:#232629;}</style>
    <title>Qt SVG Document</title>
    <desc>Auto-generated by Klassy window decoration</desc>
    <defs/>
    <g fill="none" fill-rule="evenodd" stroke="black" stroke-linecap="square" stroke-linejoin="bevel" stroke-width="1">
        <g class="ColorScheme-Text" fill="#a7c080" fill-opacity="0.719997" font-family="Noto Sans" font-size="13.3333" font-style="normal" font-weight="400" stroke="none" transform="matrix(2,0,0,2,0,0)">
            <path d="M2,3.2 C2,2.53726 2.53726,2 3.2,2 L12.8,2 C13.4627,2 14,2.53726 14,3.2 L14,12.8 C14,13.4627 13.4627,14 12.8,14 L3.2,14 C2.53726,14 2,13.4627 2,12.8 L2,3.2" fill-rule="evenodd" vector-effect="none"/>
        </g>
        <g class="ColorScheme-Text" fill="currentColor" fill-opacity="1" font-family="Noto Sans" font-size="13.3333" font-style="normal" font-weight="400" stroke="none" transform="matrix(1.77778,0,0,1.77778,0,0)">
            <path d="M5.35391,4.64609 L13.3539,12.6461 C13.5494,12.8416 13.5494,13.1584 13.3539,13.3539 C13.1584,13.5494 12.8416,13.5494 12.6461,13.3539 L4.64609,5.35391 C4.45064,5.15845 4.45064,4.84155 4.64609,4.64609 C4.84155,4.45064 5.15845,4.45064 5.35391,4.64609 " fill-rule="nonzero" vector-effect="none"/>
            <path d="M13.3539,5.35391 L5.35391,13.3539 C5.15845,13.5494 4.84155,13.5494 4.64609,13.3539 C4.45064,13.1584 4.45064,12.8416 4.64609,12.6461 L12.6461,4.64609 C12.8416,4.45064 13.1584,4.45064 13.3539,4.64609 C13.5494,4.84155 13.5494,5.15845 13.3539,5.35391 " fill-rule="nonzero" vector-effect="none"/>
        </g>
    </g>
</svg>
