<?xml version='1.0' encoding='UTF-8' standalone='no'?>
<svg baseProfile="tiny" height="6.35mm" version="1.2" viewBox="0 0 24 24" width="6.35mm" xmlns="http://www.w3.org/2000/svg" xmlns:xlink="http://www.w3.org/1999/xlink">
    <style id="current-color-scheme" type="text/css">.ColorScheme-Text {color:#232629;}</style>
    <title>Qt SVG Document</title>
    <desc>Auto-generated by Klassy window decoration</desc>
    <defs/>
    <g fill="none" fill-rule="evenodd" stroke="black" stroke-linecap="square" stroke-linejoin="bevel" stroke-width="1">
        <g class="ColorScheme-Text" fill="currentColor" fill-opacity="1" font-family="Noto Sans" font-size="13.3333" font-style="normal" font-weight="400" stroke="none" transform="matrix(1.33333,0,0,1.33333,0,0)">
            <path d="M3.64609,8.64609 L8.64609,3.64609 C8.73667,3.55552 8.86179,3.4995 9,3.4995 C9.27642,3.4995 9.5005,3.72358 9.5005,4 C9.5005,4.27642 9.27642,4.5005 9,4.5005 C8.86179,4.5005 8.73667,4.44448 8.64609,4.35391 L9.35391,3.64609 L14.3539,8.64609 C14.4445,8.73667 14.5005,8.86179 14.5005,9 C14.5005,9.13821 14.4445,9.26333 14.3539,9.35391 L9.35391,14.3539 C9.26333,14.4445 9.13821,14.5005 9,14.5005 C8.86179,14.5005 8.73667,14.4445 8.64609,14.3539 L3.64609,9.35391 C3.55552,9.26333 3.4995,9.13821 3.4995,9 C3.4995,8.86179 3.55552,8.73667 3.64609,8.64609 L3.64609,8.64609 M4.35391,8.64609 L9.35391,13.6461 L9,14 L8.64609,13.6461 L13.6461,8.64609 L14,9 L13.6461,9.35391 L8.64609,4.35391 L9,4 L9.35391,4.35391 L4.35391,9.35391 L4,9 L4.35391,8.64609" fill-rule="nonzero" vector-effect="none"/>
        </g>
    </g>
</svg>
