<?xml version='1.0' encoding='UTF-8' standalone='no'?>
<svg baseProfile="tiny" height="4.7625mm" version="1.2" viewBox="0 0 18 18" width="4.7625mm" xmlns="http://www.w3.org/2000/svg" xmlns:xlink="http://www.w3.org/1999/xlink">
    <style id="current-color-scheme" type="text/css">.ColorScheme-Text {color:#fcfcfc;}</style>
    <title>Qt SVG Document</title>
    <desc>Auto-generated by Klassy window decoration</desc>
    <defs/>
    <g fill="none" fill-rule="evenodd" stroke="black" stroke-linecap="square" stroke-linejoin="bevel" stroke-width="1">
        <g class="ColorScheme-Text" fill="currentColor" fill-opacity="1" font-family="Noto Sans" font-size="13.3333" font-style="normal" font-weight="400" stroke="none" transform="matrix(1,0,0,1,0,0)">
            <path d="M5.35391,4.64609 L13.3539,12.6461 C13.5494,12.8416 13.5494,13.1584 13.3539,13.3539 C13.1584,13.5494 12.8416,13.5494 12.6461,13.3539 L4.64609,5.35391 C4.45064,5.15845 4.45064,4.84155 4.64609,4.64609 C4.84155,4.45064 5.15845,4.45064 5.35391,4.64609 " fill-rule="nonzero" vector-effect="none"/>
            <path d="M13.3539,5.35391 L5.35391,13.3539 C5.15845,13.5494 4.84155,13.5494 4.64609,13.3539 C4.45064,13.1584 4.45064,12.8416 4.64609,12.6461 L12.6461,4.64609 C12.8416,4.45064 13.1584,4.45064 13.3539,4.64609 C13.5494,4.84155 13.5494,5.15845 13.3539,5.35391 " fill-rule="nonzero" vector-effect="none"/>
        </g>
    </g>
</svg>
